<?xml version="1.0" standalone="no"?>
<!DOCTYPE svg PUBLIC "-//W3C//DTD SVG 20010904//EN"
 "http://www.w3.org/TR/2001/REC-SVG-20010904/DTD/svg10.dtd">
<svg version="1.0" xmlns="http://www.w3.org/2000/svg"
 width="144.000000pt" height="144.000000pt" viewBox="0 0 144.000000 144.000000"
 preserveAspectRatio="xMidYMid meet">
<g transform="translate(0.000000,144.000000) scale(0.100000,-0.100000)"
fill="#000000" stroke="none">
<path d="M560 1414 c-220 -47 -428 -231 -516 -459 -24 -62 -28 -87 -32 -219
-3 -120 -1 -161 13 -215 59 -220 216 -396 437 -490 61 -25 69 -26 263 -26 194
0 202 1 263 26 100 43 169 89 246 165 125 126 182 245 199 416 26 274 -43 466
-230 637 -80 74 -216 145 -318 166 -87 18 -239 18 -325 -1z m388 -58 c183 -68
310 -182 396 -354 66 -131 84 -309 46 -457 -34 -133 -83 -218 -180 -315 -219
-220 -510 -269 -789 -134 -81 39 -109 60 -181 133 -69 69 -94 103 -127 171
-99 206 -98 416 3 619 85 168 231 290 415 346 75 22 98 25 214 22 112 -3 140
-8 203 -31z"/>
<path d="M410 1180 c-14 -11 -20 -20 -15 -20 6 0 21 9 35 20 14 11 21 20 15
20 -5 0 -21 -9 -35 -20z"/>
<path d="M707 1134 c-8 -16 -31 -75 -51 -132 -53 -154 -31 -139 -210 -144 -86
-2 -158 -7 -161 -10 -9 -8 13 -48 26 -48 8 0 64 -35 79 -50 3 -3 35 -25 73
-50 37 -25 67 -51 67 -58 0 -7 -18 -68 -40 -134 -41 -126 -47 -158 -30 -158
13 0 70 36 167 105 42 30 85 55 95 55 11 0 44 -17 74 -37 31 -21 63 -43 72
-48 9 -6 37 -25 61 -43 50 -36 71 -40 71 -13 0 10 -20 78 -44 150 l-44 132 22
15 c11 8 59 40 106 71 95 61 138 99 126 110 -4 4 -78 10 -164 13 l-157 5 -33
90 c-18 50 -39 108 -48 131 -8 22 -21 49 -28 59 -13 18 -14 17 -29 -11z m37
-41 c27 -54 77 -213 70 -225 -4 -7 -3 -8 4 -4 6 4 17 -2 24 -14 12 -18 23 -20
145 -20 77 0 134 -4 138 -10 6 -10 -37 -33 -65 -35 -8 0 -14 -7 -12 -14 1 -7
-7 -15 -18 -18 -11 -3 -20 -9 -20 -13 0 -4 -7 -11 -16 -14 -9 -4 -13 -2 -8 5
4 8 0 7 -15 0 -11 -7 -21 -17 -21 -24 0 -7 -4 -6 -10 3 -8 12 -10 10 -10 -8 0
-13 -4 -20 -10 -17 -5 3 -11 0 -11 -7 -1 -7 -3 -25 -5 -40 -1 -16 1 -28 5 -28
5 0 6 -12 3 -26 -4 -20 -2 -25 8 -19 8 5 11 4 6 -3 -4 -6 -2 -19 4 -29 20 -36
50 -125 45 -134 -9 -13 -21 -11 -39 7 -9 8 -16 13 -16 9 0 -4 -7 1 -16 9 -8 9
-22 16 -31 16 -10 0 -13 6 -9 16 4 11 2 15 -8 11 -8 -3 -17 1 -20 9 -3 8 -15
14 -26 14 -12 0 -19 4 -15 9 3 5 -5 13 -17 17 -13 4 -26 12 -30 18 -6 8 -11 7
-17 -3 -5 -7 -14 -11 -20 -7 -13 8 -63 -17 -92 -47 -12 -12 -18 -15 -14 -7 5
8 -3 4 -17 -10 -37 -37 -70 -60 -86 -60 -8 0 -10 -5 -6 -12 5 -9 2 -8 -9 1
-13 10 -14 17 -6 27 6 7 7 19 3 25 -5 8 -2 10 8 7 11 -5 14 -1 11 16 -3 12 7
48 21 80 26 58 35 95 16 66 -11 -17 -13 -10 -4 14 3 9 11 13 18 9 7 -4 7 -1
-1 9 -7 8 -10 17 -7 20 3 3 -7 15 -21 26 l-26 21 23 3 c14 2 -1 9 -41 18 -35
8 -71 21 -80 28 -9 7 -10 10 -2 6 9 -5 12 -3 7 5 -4 6 -11 9 -16 6 -5 -3 -15
1 -23 9 -8 8 -27 18 -43 22 -53 13 3 23 142 23 l131 1 25 48 c14 26 29 58 32
72 15 54 61 170 68 170 4 0 14 -12 22 -27z"/>
<path d="M550 712 c0 -4 18 -6 40 -4 22 2 40 6 40 8 0 2 -18 4 -40 4 -22 0
-40 -3 -40 -8z"/>
<path d="M331 1126 c-13 -14 -22 -29 -20 -33 2 -5 17 6 32 24 33 38 22 45 -12
9z"/>
<path d="M1060 1120 c0 -5 7 -10 15 -10 8 0 15 -4 15 -10 0 -5 10 -15 23 -21
19 -10 17 -7 -7 20 -30 32 -46 39 -46 21z"/>
<path d="M249 1031 c-18 -20 -31 -61 -20 -61 8 0 44 71 38 76 -2 2 -10 -5 -18
-15z"/>
<path d="M1161 1018 c27 -30 33 -42 27 -52 -2 -2 5 -13 15 -24 13 -14 17 -28
12 -44 -4 -16 -3 -19 3 -10 7 10 11 4 16 -22 6 -33 26 -61 26 -36 0 48 -91
220 -117 220 -6 0 1 -15 18 -32z"/>
<path d="M197 925 c-9 -19 -20 -53 -23 -75 -6 -34 -10 -40 -33 -41 -21 -1 -22
-2 -5 -6 20 -4 21 -9 16 -71 -3 -44 1 -89 12 -130 9 -35 16 -75 16 -88 0 -14
4 -22 10 -19 6 3 10 -2 10 -12 0 -31 53 -105 127 -179 77 -77 97 -94 113 -94
5 0 10 -5 10 -11 0 -5 5 -7 11 -4 6 4 -10 21 -38 40 -150 101 -253 287 -253
459 0 64 18 185 30 201 8 11 22 65 17 65 -2 0 -11 -16 -20 -35z"/>
<path d="M1240 794 c-14 -7 -34 -16 -44 -19 -10 -3 -17 -8 -14 -11 3 -2 18 0
33 6 15 6 30 9 32 6 10 -10 14 -137 5 -149 -5 -7 -10 -30 -10 -51 -1 -22 -5
-42 -10 -45 -5 -3 -15 -23 -21 -44 -7 -20 -18 -43 -24 -50 -7 -7 -20 -26 -29
-42 -10 -17 -22 -29 -28 -27 -5 1 -10 -2 -10 -7 0 -4 -13 -23 -29 -41 -19 -22
-33 -30 -42 -25 -8 5 -11 4 -6 0 9 -10 -21 -45 -40 -45 -7 0 -13 -5 -13 -11 0
-21 84 37 139 97 106 114 164 292 142 435 -6 34 -7 34 -31 23z"/>
<path d="M1117 753 c-13 -13 -7 -21 13 -16 11 3 20 9 20 14 0 10 -24 12 -33 2z"/>
</g>
</svg>
